<?xml version="1.0" encoding="UTF-8" standalone="no"?>
<!-- Created with Inkscape (http://www.inkscape.org/) -->

<svg
   version="1.1"
   id="svg1"
   width="517.90698"
   height="509.8024"
   viewBox="0 0 517.90698 509.8024"
   xmlns="http://www.w3.org/2000/svg"
   xmlns:svg="http://www.w3.org/2000/svg">
  <defs
     id="defs1" />
  <g
     id="g1"
     transform="translate(-1225.1292,-87.96347)">
    <path
       style="fill:#ffffff"
       d="m 1473.1215,596.73224 c -15.2309,-2.06267 -27.0919,-5.6121 -81.1658,-24.2892 -46.666,-16.1184 -60.9378,-16.75048 -80.5235,-3.56629 -17.8725,12.0309 -32.6441,2.39531 -16.9839,-11.07867 23.8414,-20.51307 51.4818,-21.47445 100.1741,-3.48422 80.2684,29.65657 94.8351,30.69425 150.002,10.68557 78.6795,-28.5365 86.3863,-34.53423 140.9663,-109.70488 9.5843,-13.2 21.8676,-30.0053 27.2963,-37.34512 11.7373,-15.86947 11.7184,-15.83029 8.2711,-17.14098 -12.2624,-4.66213 -27.6763,3.53741 -42.7332,22.73224 -41.9216,53.44237 -53.7035,65.18098 -77.0078,76.72493 -43.1916,21.39535 -87.4643,27.22976 -140.1577,18.4705 -23.8708,-3.96806 -26.1847,-4.61419 -29.1519,-8.14052 -7.5012,-8.91469 2.1262,-16.64471 16.0977,-12.92506 42.2212,11.2407 79.6342,9.50855 127.9293,-5.9229 19.049,-6.08662 22.7362,-8.99292 17.8669,-14.08284 -9.0138,-9.42213 -12.5249,-10.07175 -55.3799,-10.24639 l -36.5,-0.14875 -9,-2.77729 c -12.3903,-3.82348 -22.0998,-8.57281 -32.8638,-16.07498 -68.9257,-48.03914 -125.5911,-37.8873 -200.6362,35.94477 -22.6547,22.28846 -25.5722,23.95115 -31.5455,17.97784 -5.9012,-5.90125 -4.1551,-8.98626 16.5455,-29.23175 l 15.5,-15.15926 0.2775,-84.11692 c 0.3175,-96.27345 1.1336,-89.22527 -9.3516,-80.7648 -12.4469,10.04334 -15.4216,10.88545 -20.5028,5.8042 -5.9898,-5.98977 -3.2834,-11.27072 11.9531,-23.3237 38.1505,-30.17941 172.0877,-137.21231 216.6238,-173.11003 26.1932,-21.112716 19.6169,-22.927699 74.0816,20.44572 203.3838,161.96658 205.4184,163.64701 205.4184,169.65949 0,11.59639 -8.0375,12.25618 -21.3381,1.7516 -5.223,-4.125 -9.7586,-7.5 -10.0791,-7.5 -0.3205,0 -0.5828,21.375 -0.5828,47.5 v 47.5 h 7.9893 c 26.9091,0 36.3662,16.15122 21.1821,36.17574 -4.3057,5.67834 -18.0016,24.35222 -30.4353,41.4975 -61.8086,85.23028 -67.1343,89.6981 -139.2361,116.80947 -53.6126,20.15913 -69.455,23.6436 -93,20.45498 z m 149.8648,-135.18769 c 10.1242,-10.15874 20.1557,-22.19105 35.5776,-42.67349 6.5091,-8.64502 14.643,-18.21976 18.0753,-21.27719 l 6.2407,-5.55895 -3.7669,-1.24317 c -14.6955,-4.84996 -24.8821,2.52648 -43.5044,31.5028 -6.7159,10.45 -16.0276,24.32614 -20.6926,30.83587 l -8.4818,11.83587 2.268,2.41413 c 3.5531,3.78219 5.4855,2.9927 14.2841,-5.83587 z m -28.6164,-11.5 c 3.0892,-3.97207 12.2393,-17.504 29.5833,-43.75 5.8152,-8.8 11.8149,-17.51133 13.3326,-19.35851 2.6711,-3.25106 2.6985,-3.40304 0.8564,-4.75 -7.9975,-5.84793 -21.9993,6.20532 -37.4415,32.23109 -5.1814,8.73258 -12.1014,20.05736 -15.3779,25.16617 -3.2764,5.10881 -5.6736,9.57226 -5.3271,9.91878 1.1389,1.13889 8.0905,4.12886 9.7918,4.21152 0.9162,0.0445 2.9783,-1.60655 4.5824,-3.66905 z m -39.0448,-1.82329 c 3.0385,-0.60881 29.2964,-40.33897 29.2964,-44.32759 0,-3.67406 -9.1626,5.74721 -16.9231,17.40088 -5.2181,7.83575 -13.0365,17.83907 -18.9084,24.19235 -4.0734,4.40732 -3.3419,4.71339 6.5351,2.73436 z m -39.9435,-2.27491 c 11.6821,-3.63588 18.1742,-9.5085 33.8851,-30.6518 16.1267,-21.703 19.1341,-25.32556 23.329,-28.10164 5.7182,-3.78413 10.8183,-4.66853 16.6752,-2.89162 2.6678,0.80938 5.1215,1.47648 5.4526,1.48244 0.331,0.006 4.381,-3.73705 9,-8.31778 17.3498,-17.20642 36.9317,-19.70379 49.7598,-6.34612 l 3.3617,3.50054 4.6383,-1.31453 c 9.8391,-2.78854 11.2862,-2.78177 24.3882,0.11406 l 2.75,0.6078 v -51.10854 -51.10854 l -42.75,-34.21937 c -23.5125,-18.82066 -69.6499,-55.73564 -102.5275,-82.0333 l -59.7775,-47.81393 c -39.9425,32.35105 -54.2146,43.77818 -205.945,165.19027 v 84.43013 c 0,46.43657 0.2262,84.43013 0.5028,84.43013 0.2765,0 6.239,-4.03553 13.25,-8.96785 44.6466,-31.40948 87.773,-39.11833 133.7472,-23.90732 13.3486,4.41654 18.0544,6.81589 40.5,20.65012 27.9212,17.20906 37.2361,20.27475 49.7601,16.37685 z m -36.989,-46.08866 c -77.2289,-42.34102 -116.5771,-113.34929 -85.7192,-154.68989 20.2303,-27.10268 66.1986,-23.76278 88.3096,6.41627 l 2.4101,3.28952 3.5398,-4.78952 c 40.1867,-54.37417 117.7697,-9.83394 95.3192,54.72252 -12.0434,34.63059 -87.7272,103.89567 -103.8595,95.0511 z m 18.2289,-27.62957 c 33.406,-25.07778 55.4918,-47.49352 64.4706,-65.43357 27.3695,-54.68604 -35.8377,-89.41996 -65.4706,-35.9777 -8.8739,16.00377 -14.5187,16.2412 -23,0.96742 -29.4591,-53.05195 -92.8253,-21.39574 -67.0775,33.51028 5.8576,12.49093 15.0306,23.81761 33.3252,41.14941 14.6995,13.92598 44.1967,36.00425 46.1282,34.52648 0.6182,-0.473 5.8491,-4.40705 11.6241,-8.74232 z"
       id="path1" />
  </g>
</svg>
